<?xml version="1.0" encoding="utf-8"?>
<!-- Generator: Adobe Illustrator 25.1.0, SVG Export Plug-In . SVG Version: 6.00 Build 0)  -->
<svg version="1.1" id="Layer_1" xmlns="http://www.w3.org/2000/svg" xmlns:xlink="http://www.w3.org/1999/xlink" x="0px" y="0px"
	 viewBox="0 0 480 480" style="enable-background:new 0 0 480 480;" xml:space="preserve">
<g>
	<path d="M69.9,200.37h37.36v10.3H83.43v15.45h22.43v10.47H83.43v26.88H69.9V200.37z"/>
	<path d="M135.01,218.35c15.54,0,22.69,12.74,22.69,22.95c0,12.13-7.85,23.74-22.69,23.74c-14.49,0-22.95-10.56-22.95-23.65
		C112.05,230.57,119.65,218.35,135.01,218.35z M135.01,256.41c6.2,0,9.95-4.97,9.95-15.1c0-9.34-3.93-14.49-9.95-14.49
		c-5.24,0-10.04,4.1-10.04,14.58C124.97,249.51,127.68,256.41,135.01,256.41z"/>
	<path d="M160.75,219.31h8.03l3.23-13.62h9.51v13.62h10.91v8.9h-10.82V251c0,2.18,1.31,3.58,3.58,3.58c2.53,0,4.98-0.79,7.07-1.57
		l-0.17,8.55c-2.18,1.4-6.02,2.97-9.86,2.97c-8.64,0-13.44-4.63-13.44-13.27v-23.04h-8.03V219.31z"/>
	<path d="M219.75,218.35c15.54,0,22.69,12.74,22.69,22.95c0,12.13-7.85,23.74-22.69,23.74c-14.49,0-22.95-10.56-22.95-23.65
		C196.8,230.57,204.39,218.35,219.75,218.35z M219.75,256.41c6.2,0,9.95-4.97,9.95-15.1c0-9.34-3.93-14.49-9.95-14.49
		c-5.24,0-10.04,4.1-10.04,14.58C209.72,249.51,212.42,256.41,219.75,256.41z"/>
	<path d="M294.11,219.31c-0.61,2.88-1.4,8.55-1.4,11.7v30.98c0,12.04-9.08,18.24-20.34,18.24c-13.44,0-18.5-6.81-19.64-13.53h12.74
		c0.44,3.14,2.97,5.15,6.63,5.15c5.15,0,8.2-3.14,8.2-9.43c0-3.14,0.09-5.94,0.09-5.94h-0.7c-2.27,3.4-6.46,5.94-11.43,5.94
		c-11,0-18.42-8.29-18.42-21.3c0-14.4,8.12-22.43,18.15-22.43c4.89,0,8.64,2.27,11.52,6.11h0.7l1.31-5.5H294.11z M271.33,254.23
		c4.89,0,8.47-5.24,8.9-9.08v-8.47c-0.44-3.67-3.84-9.25-9.08-9.25c-5.5,0-8.64,5.59-8.64,13.62
		C262.52,249.86,265.57,254.23,271.33,254.23z"/>
	<path d="M304.24,231.1c0-3.93-0.26-8.38-0.87-11.78h11.87l0.7,11.78h0.7c1.57-5.67,4.8-12.74,11.61-12.74
		c2.44,0,3.93,0.61,5.24,1.22v11.08c-1.22-0.61-2.88-1.13-4.63-1.13c-7.94,0-11.7,6.63-11.7,15.89v18.07h-12.92V231.1z"/>
	<path d="M365.33,263.48c0.17-1.22,0.35-3.05,0.35-5.06h-0.7c-3.67,3.84-8.03,6.11-13.35,6.11c-8.64,0-14.23-5.06-14.23-13.53
		c0-8.55,7.33-13.7,16.5-13.88c4.28-0.09,8.55,0.61,11.78,1.4v-3.58c-0.17-5.94-2.88-8.9-7.59-8.9c-4.71,0-6.98,2.71-6.55,6.55
		H338.1c1.48-7.86,8.47-14.14,20.25-14.14c10.3,0,19.2,4.98,19.2,16.32v22.26c0,1.83,0,4.63,0.26,6.46H365.33z M365.59,244.71
		c-2.71-0.61-5.5-0.96-8.38-0.87c-4.89,0.17-7.42,2.97-7.42,6.55c0,3.23,2.27,5.85,6.55,5.85c4.54,0,7.42-2.62,9.25-5.15V244.71z"/>
	<path d="M410.1,209.28c-0.52-0.09-2.09-0.17-2.71-0.17c-4.36,0-4.98,2.62-4.98,4.71v5.5h6.81v8.9h-6.81v35.26h-12.83v-35.26h-6.55
		v-8.9h6.55v-5.85c0-8.47,4.45-13.7,13.53-13.7c1.75,0,5.15,0.26,6.98,0.61V209.28z"/>
</g>
</svg>
